# Blender 3.4.1
# www.blender.org
mtllib lvl1.mtl
o Cube
v 2.500000 0.050000 -2.750000
v 2.500000 -0.050000 -2.750000
v 2.500000 0.050000 2.750000
v 2.500000 -0.050000 2.750000
v -2.500000 0.050000 -2.750000
v -2.500000 -0.050000 -2.750000
v -2.500000 0.050000 2.750000
v -2.500000 -0.050000 2.750000
vn -0.0000 1.0000 -0.0000
vn -0.0000 -0.0000 1.0000
vn -1.0000 -0.0000 -0.0000
vn -0.0000 -1.0000 -0.0000
vn 1.0000 -0.0000 -0.0000
vn -0.0000 -0.0000 -1.0000
vt 0.625000 0.500000
vt 0.375000 0.500000
vt 0.625000 0.750000
vt 0.375000 0.750000
vt 0.875000 0.500000
vt 0.625000 0.250000
vt 0.125000 0.500000
vt 0.375000 0.250000
vt 0.875000 0.750000
vt 0.625000 1.000000
vt 0.625000 0.000000
vt 0.375000 1.000000
vt 0.375000 0.000000
vt 0.125000 0.750000
s 0
usemtl Material
f 1/1/1 5/5/1 7/9/1 3/3/1
f 4/4/2 3/3/2 7/10/2 8/12/2
f 8/13/3 7/11/3 5/6/3 6/8/3
f 6/7/4 2/2/4 4/4/4 8/14/4
f 2/2/5 1/1/5 3/3/5 4/4/5
f 6/8/6 5/6/6 1/1/6 2/2/6
o mesh0
v 0.513090 2.136994 -2.732145
v 0.513090 0.031994 -2.732145
v 0.513090 0.031994 -2.657145
v 0.513090 2.136994 -2.657145
vn -1.0000 -0.0000 -0.0000
s 0
usemtl 0.647059_0.647059_0.647059_0.000000_0.000000
f 9//7 10//7 11//7
f 11//7 12//7 9//7
o mesh1
v 0.513090 0.031994 -2.732145
v 0.513090 0.031994 -2.657145
v 0.579090 0.031994 -2.732145
v 0.528090 0.031994 -2.642145
v 0.579090 0.031994 -2.642145
vn -0.0000 -1.0000 -0.0000
s 0
usemtl 0.647059_0.647059_0.647059_0.000000_0.000000
f 15//8 16//8 14//8
f 15//8 17//8 16//8
f 14//8 13//8 15//8
o mesh10
v -0.496910 0.031994 -2.657145
v -0.511910 0.031994 -2.642145
v -0.496910 2.136994 -2.657145
v -0.511910 2.151994 -2.642145
vn 0.7071 -0.0000 0.7071
s 0
usemtl 0.647059_0.647059_0.647059_0.000000_0.000000
f 19//9 18//9 20//9
f 20//9 21//9 19//9
o mesh11
v 0.513090 2.136994 -2.657145
v -0.496910 2.136994 -2.657145
v -0.511910 2.151994 -2.642145
v 0.528090 2.151994 -2.642145
vn -0.0000 -0.7071 0.7071
s 0
usemtl 0.647059_0.647059_0.647059_0.000000_0.000000
f 25//10 24//10 23//10
f 23//10 22//10 25//10
o mesh12
v 0.513090 0.031994 -2.657145
v 0.513090 2.136994 -2.657145
v 0.528090 0.031994 -2.642145
v 0.528090 2.151994 -2.642145
vn -0.7071 -0.0000 0.7071
s 0
usemtl 0.647059_0.647059_0.647059_0.000000_0.000000
f 28//11 29//11 27//11
f 27//11 26//11 28//11
o mesh2
v 0.579090 0.031994 -2.732145
v 0.579090 0.031994 -2.642145
v 0.579090 2.202994 -2.732145
v 0.579090 2.202994 -2.642145
vn 1.0000 -0.0000 -0.0000
s 0
usemtl 0.647059_0.647059_0.647059_0.000000_0.000000
f 31//12 30//12 32//12
f 32//12 33//12 31//12
o mesh3
v 0.579090 2.202994 -2.732145
v 0.579090 2.202994 -2.642145
v -0.562910 2.202994 -2.732145
v -0.562910 2.202994 -2.642145
vn -0.0000 1.0000 -0.0000
s 0
usemtl 0.647059_0.647059_0.647059_0.000000_0.000000
f 35//13 34//13 36//13
f 36//13 37//13 35//13
o mesh4
v -0.562910 2.202994 -2.732145
v -0.562910 2.202994 -2.642145
v -0.562910 0.031994 -2.732145
v -0.562910 0.031994 -2.642145
vn -1.0000 -0.0000 -0.0000
s 0
usemtl 0.647059_0.647059_0.647059_0.000000_0.000000
f 39//14 38//14 40//14
f 40//14 41//14 39//14
o mesh5
v 0.513090 2.136994 -2.732145
v 0.513090 0.031994 -2.732145
v 0.579090 0.031994 -2.732145
v 0.579090 2.202994 -2.732145
v -0.562910 2.202994 -2.732145
v -0.562910 0.031994 -2.732145
v -0.496910 2.136994 -2.732145
v -0.496910 0.031994 -2.732145
vn -0.0000 -0.0000 -1.0000
s 0
usemtl 0.647059_0.647059_0.647059_0.000000_0.000000
f 47//15 46//15 48//15
f 46//15 45//15 42//15
f 42//15 48//15 46//15
f 44//15 43//15 42//15
f 42//15 45//15 44//15
f 48//15 49//15 47//15
o mesh6
v -0.562910 0.031994 -2.732145
v -0.562910 0.031994 -2.642145
v -0.496910 0.031994 -2.732145
v -0.496910 0.031994 -2.657145
v -0.511910 0.031994 -2.642145
vn -0.0000 -1.0000 -0.0000
s 0
usemtl 0.647059_0.647059_0.647059_0.000000_0.000000
f 50//16 52//16 53//16
f 53//16 54//16 50//16
f 54//16 51//16 50//16
o mesh7
v -0.496910 2.136994 -2.732145
v -0.496910 0.031994 -2.732145
v -0.496910 0.031994 -2.657145
v -0.496910 2.136994 -2.657145
vn 1.0000 -0.0000 -0.0000
s 0
usemtl 0.647059_0.647059_0.647059_0.000000_0.000000
f 56//17 55//17 58//17
f 58//17 57//17 56//17
o mesh8
v 0.528090 0.031994 -2.642145
v 0.579090 0.031994 -2.642145
v 0.579090 2.202994 -2.642145
v -0.562910 2.202994 -2.642145
v -0.562910 0.031994 -2.642145
v -0.511910 0.031994 -2.642145
v -0.511910 2.151994 -2.642145
v 0.528090 2.151994 -2.642145
vn -0.0000 -0.0000 1.0000
s 0
usemtl 0.647059_0.647059_0.647059_0.000000_0.000000
f 61//18 62//18 65//18
f 63//18 64//18 65//18
f 60//18 61//18 66//18
f 65//18 62//18 63//18
f 65//18 66//18 61//18
f 66//18 59//18 60//18
o mesh9
v 0.513090 2.136994 -2.732145
v 0.513090 2.136994 -2.657145
v -0.496910 2.136994 -2.732145
v -0.496910 2.136994 -2.657145
vn -0.0000 -1.0000 -0.0000
s 0
usemtl 0.647059_0.647059_0.647059_0.000000_0.000000
f 69//19 67//19 68//19
f 68//19 70//19 69//19
o Cube.001
v -2.494551 -0.010000 2.751051
v -2.494551 2.690000 2.751051
v -2.494551 -0.010000 -2.748949
v -2.494551 2.690000 -2.748949
v -2.394551 -0.010000 2.751051
v -2.394551 2.690000 2.751051
v -2.394551 -0.010000 -2.748949
v -2.394551 2.690000 -2.748949
vn -1.0000 -0.0000 -0.0000
vn -0.0000 -0.0000 -1.0000
vn 1.0000 -0.0000 -0.0000
vn -0.0000 -0.0000 1.0000
vn -0.0000 -1.0000 -0.0000
vn -0.0000 1.0000 -0.0000
vt 0.375000 0.000000
vt 0.375000 1.000000
vt 0.125000 0.750000
vt 0.625000 0.000000
vt 0.625000 1.000000
vt 0.875000 0.750000
vt 0.375000 0.250000
vt 0.125000 0.500000
vt 0.625000 0.250000
vt 0.875000 0.500000
vt 0.375000 0.750000
vt 0.625000 0.750000
vt 0.375000 0.500000
vt 0.625000 0.500000
s 0
f 71/15/20 72/18/20 74/23/20 73/21/20
f 73/21/21 74/23/21 78/28/21 77/27/21
f 77/27/22 78/28/22 76/26/22 75/25/22
f 75/25/23 76/26/23 72/19/23 71/16/23
f 73/22/24 77/27/24 75/25/24 71/17/24
f 78/28/25 74/24/25 72/20/25 76/26/25
o Cube.002
v 2.388168 -0.010000 2.760632
v 2.388168 2.690000 2.760632
v 2.388168 -0.010000 -2.739367
v 2.388168 2.690000 -2.739367
v 2.488168 -0.010000 2.760632
v 2.488168 2.690000 2.760632
v 2.488168 -0.010000 -2.739367
v 2.488168 2.690000 -2.739367
vn -1.0000 -0.0000 -0.0000
vn -0.0000 -0.0000 -1.0000
vn 1.0000 -0.0000 -0.0000
vn -0.0000 -0.0000 1.0000
vn -0.0000 -1.0000 -0.0000
vn -0.0000 1.0000 -0.0000
vt 0.375000 0.000000
vt 0.375000 1.000000
vt 0.125000 0.750000
vt 0.625000 0.000000
vt 0.625000 1.000000
vt 0.875000 0.750000
vt 0.375000 0.250000
vt 0.125000 0.500000
vt 0.625000 0.250000
vt 0.875000 0.500000
vt 0.375000 0.750000
vt 0.625000 0.750000
vt 0.375000 0.500000
vt 0.625000 0.500000
s 0
f 79/29/26 80/32/26 82/37/26 81/35/26
f 81/35/27 82/37/27 86/42/27 85/41/27
f 85/41/28 86/42/28 84/40/28 83/39/28
f 83/39/29 84/40/29 80/33/29 79/30/29
f 81/36/30 85/41/30 83/39/30 79/31/30
f 86/42/31 82/38/31 80/34/31 84/40/31
o Cube.003
v -2.464324 -0.010000 2.648686
v -2.464324 2.690000 2.648686
v 2.435676 -0.010000 2.648686
v 2.435676 2.690000 2.648686
v -2.464324 -0.010000 2.748686
v -2.464324 2.690000 2.748686
v 2.435676 -0.010000 2.748686
v 2.435676 2.690000 2.748686
vn -0.0000 -0.0000 -1.0000
vn 1.0000 -0.0000 -0.0000
vn -0.0000 -0.0000 1.0000
vn -1.0000 -0.0000 -0.0000
vn -0.0000 -1.0000 -0.0000
vn -0.0000 1.0000 -0.0000
vt 0.375000 0.000000
vt 0.375000 1.000000
vt 0.125000 0.750000
vt 0.625000 0.000000
vt 0.625000 1.000000
vt 0.875000 0.750000
vt 0.375000 0.250000
vt 0.125000 0.500000
vt 0.625000 0.250000
vt 0.875000 0.500000
vt 0.375000 0.750000
vt 0.625000 0.750000
vt 0.375000 0.500000
vt 0.625000 0.500000
s 0
f 87/43/32 88/46/32 90/51/32 89/49/32
f 89/49/33 90/51/33 94/56/33 93/55/33
f 93/55/34 94/56/34 92/54/34 91/53/34
f 91/53/35 92/54/35 88/47/35 87/44/35
f 89/50/36 93/55/36 91/53/36 87/45/36
f 94/56/37 90/52/37 88/48/37 92/54/37
o Cube.004
v 2.489439 2.767217 -2.772091
v 2.489439 2.667217 -2.772091
v 2.489439 2.767217 2.727909
v 2.489439 2.667217 2.727909
v -2.510561 2.767217 -2.772091
v -2.510561 2.667217 -2.772091
v -2.510561 2.767217 2.727909
v -2.510561 2.667217 2.727909
vn -0.0000 1.0000 -0.0000
vn -0.0000 -0.0000 1.0000
vn -1.0000 -0.0000 -0.0000
vn -0.0000 -1.0000 -0.0000
vn 1.0000 -0.0000 -0.0000
vn -0.0000 -0.0000 -1.0000
vt 0.625000 0.500000
vt 0.375000 0.500000
vt 0.625000 0.750000
vt 0.375000 0.750000
vt 0.875000 0.500000
vt 0.625000 0.250000
vt 0.125000 0.500000
vt 0.375000 0.250000
vt 0.875000 0.750000
vt 0.625000 1.000000
vt 0.625000 0.000000
vt 0.375000 1.000000
vt 0.375000 0.000000
vt 0.125000 0.750000
s 0
usemtl Material
f 95/57/38 99/61/38 101/65/38 97/59/38
f 98/60/39 97/59/39 101/66/39 102/68/39
f 102/69/40 101/67/40 99/62/40 100/64/40
f 100/63/41 96/58/41 98/60/41 102/70/41
f 96/58/42 95/57/42 97/59/42 98/60/42
f 100/64/43 99/62/43 95/57/43 96/58/43
o Cube.005
v 0.536921 -0.010000 -2.705000
v 0.536921 2.690000 -2.705000
v 2.436921 -0.010000 -2.705000
v 2.436921 2.690000 -2.705000
v 0.536921 -0.010000 -2.655000
v 0.536921 2.690000 -2.655000
v 2.436921 -0.010000 -2.655000
v 2.436921 2.690000 -2.655000
vn -0.0000 -0.0000 -1.0000
vn 1.0000 -0.0000 -0.0000
vn -0.0000 -0.0000 1.0000
vn -1.0000 -0.0000 -0.0000
vn -0.0000 -1.0000 -0.0000
vn -0.0000 1.0000 -0.0000
vt 0.375000 0.000000
vt 0.375000 1.000000
vt 0.125000 0.750000
vt 0.625000 0.000000
vt 0.625000 1.000000
vt 0.875000 0.750000
vt 0.375000 0.250000
vt 0.125000 0.500000
vt 0.625000 0.250000
vt 0.875000 0.500000
vt 0.375000 0.750000
vt 0.625000 0.750000
vt 0.375000 0.500000
vt 0.625000 0.500000
s 0
f 103/71/44 104/74/44 106/79/44 105/77/44
f 105/77/45 106/79/45 110/84/45 109/83/45
f 109/83/46 110/84/46 108/82/46 107/81/46
f 107/81/47 108/82/47 104/75/47 103/72/47
f 105/78/48 109/83/48 107/81/48 103/73/48
f 110/84/49 106/80/49 104/76/49 108/82/49
o Cube.006
v -2.441431 -0.010000 -2.705000
v -2.441431 2.690000 -2.705000
v -0.541431 -0.010000 -2.705000
v -0.541431 2.690000 -2.705000
v -2.441431 -0.010000 -2.655000
v -2.441431 2.690000 -2.655000
v -0.541431 -0.010000 -2.655000
v -0.541431 2.690000 -2.655000
vn -0.0000 -0.0000 -1.0000
vn 1.0000 -0.0000 -0.0000
vn -0.0000 -0.0000 1.0000
vn -1.0000 -0.0000 -0.0000
vn -0.0000 -1.0000 -0.0000
vn -0.0000 1.0000 -0.0000
vt 0.375000 0.000000
vt 0.375000 1.000000
vt 0.125000 0.750000
vt 0.625000 0.000000
vt 0.625000 1.000000
vt 0.875000 0.750000
vt 0.375000 0.250000
vt 0.125000 0.500000
vt 0.625000 0.250000
vt 0.875000 0.500000
vt 0.375000 0.750000
vt 0.625000 0.750000
vt 0.375000 0.500000
vt 0.625000 0.500000
s 0
f 111/85/50 112/88/50 114/93/50 113/91/50
f 113/91/51 114/93/51 118/98/51 117/97/51
f 117/97/52 118/98/52 116/96/52 115/95/52
f 115/95/53 116/96/53 112/89/53 111/86/53
f 113/92/54 117/97/54 115/95/54 111/87/54
f 118/98/55 114/94/55 112/90/55 116/96/55
o Cube.007
v -0.592757 2.190000 -2.705000
v -0.592757 2.690000 -2.705000
v 0.607243 2.190000 -2.705000
v 0.607243 2.690000 -2.705000
v -0.592757 2.190000 -2.655000
v -0.592757 2.690000 -2.655000
v 0.607243 2.190000 -2.655000
v 0.607243 2.690000 -2.655000
vn -0.0000 -0.0000 -1.0000
vn 1.0000 -0.0000 -0.0000
vn -0.0000 -0.0000 1.0000
vn -1.0000 -0.0000 -0.0000
vn -0.0000 -1.0000 -0.0000
vn -0.0000 1.0000 -0.0000
vt 0.375000 0.000000
vt 0.375000 1.000000
vt 0.125000 0.750000
vt 0.625000 0.000000
vt 0.625000 1.000000
vt 0.875000 0.750000
vt 0.375000 0.250000
vt 0.125000 0.500000
vt 0.625000 0.250000
vt 0.875000 0.500000
vt 0.375000 0.750000
vt 0.625000 0.750000
vt 0.375000 0.500000
vt 0.625000 0.500000
s 0
f 119/99/56 120/102/56 122/107/56 121/105/56
f 121/105/57 122/107/57 126/112/57 125/111/57
f 125/111/58 126/112/58 124/110/58 123/109/58
f 123/109/59 124/110/59 120/103/59 119/100/59
f 121/106/60 125/111/60 123/109/60 119/101/60
f 126/112/61 122/108/61 120/104/61 124/110/61
