# File units = meters
mtllib MARCO.mtl
g Part 2
v 0.505 1.055 0 
v 0.505 -1.05 0 
v 0.505 -1.05 0.075 
v 0.505 1.055 0.075 
v 0.571 -1.05 0 
v 0.52 -1.05 0.09 
v 0.571 -1.05 0.09 
v 0.571 1.121 0 
v 0.571 1.121 0.09 
v -0.571 1.121 0 
v -0.571 1.121 0.09 
v -0.571 -1.05 0 
v -0.571 -1.05 0.09 
v -0.505 1.055 0 
v -0.505 -1.05 0 
v -0.505 -1.05 0.075 
v -0.52 -1.05 0.09 
v -0.505 1.055 0.075 
v -0.52 1.07 0.09 
v 0.52 1.07 0.09 
vn -1 1.05484e-16 0 
vn 0 -1 0 
vn 1 -1.02278e-16 0 
vn 0 1 0 
vn -1 1.02278e-16 0 
vn 0 0 -1 
vn 0 -1 0 
vn 1 -1.05484e-16 0 
vn 0 0 1 
vn 0 -1 0 
vn 0.707107 -7.45887e-17 0.707107 
vn 0 -0.707107 0.707107 
vn -0.707107 7.45887e-17 0.707107 
usemtl 0.647059_0.647059_0.647059_0.000000_0.000000
o mesh0
f 1//1 2//1 3//1 
f 3//1 4//1 1//1 
o mesh1
f 5//2 6//2 3//2 
f 5//2 7//2 6//2 
f 3//2 2//2 5//2 
o mesh2
f 7//3 5//3 8//3 
f 8//3 9//3 7//3 
o mesh3
f 9//4 8//4 10//4 
f 10//4 11//4 9//4 
o mesh4
f 11//5 10//5 12//5 
f 12//5 13//5 11//5 
o mesh5
f 12//6 10//6 14//6 
f 10//6 8//6 1//6 
f 1//6 14//6 10//6 
f 5//6 2//6 1//6 
f 1//6 8//6 5//6 
f 14//6 15//6 12//6 
o mesh6
f 12//7 15//7 16//7 
f 16//7 17//7 12//7 
f 17//7 13//7 12//7 
o mesh7
f 15//8 14//8 18//8 
f 18//8 16//8 15//8 
o mesh8
f 9//9 11//9 19//9 
f 13//9 17//9 19//9 
f 7//9 9//9 20//9 
f 19//9 11//9 13//9 
f 19//9 20//9 9//9 
f 20//9 6//9 7//9 
o mesh9
f 14//10 1//10 4//10 
f 4//10 18//10 14//10 
o mesh10
f 17//11 16//11 18//11 
f 18//11 19//11 17//11 
o mesh11
f 20//12 19//12 18//12 
f 18//12 4//12 20//12 
o mesh12
f 6//13 20//13 4//13 
f 4//13 3//13 6//13 
