# Blender 3.4.1
# www.blender.org
mtllib puertabien.mtl
o mesh0
v -0.500000 -1.050000 0.070000
v -0.500000 -1.050000 -0.000000
v 0.500000 -1.050000 -0.000000
v 0.500000 -1.050000 0.070000
vn -0.0000 -1.0000 -0.0000
vt 0.609524 0.476191
vt 0.576191 0.476191
vt 0.576191 0.000000
vt 0.609524 0.000000
s 0
usemtl 0.615686_0.811765_0.929412_0.000000_0.000000
f 1/1/1 2/2/1 3/3/1
f 3/3/1 4/4/1 1/1/1
o mesh1
v 0.500000 -1.050000 -0.000000
v 0.500000 -1.050000 0.070000
v 0.500000 1.050000 0.000000
v 0.500000 1.050000 0.070000
vn 1.0000 -0.0000 -0.0000
vt 1.026148 0.517887
vt 1.026230 0.484554
vt 0.026151 0.515446
vt 0.026233 0.482113
s 0
usemtl 0.615686_0.811765_0.929412_0.000000_0.000000
f 6/6/2 5/5/2 7/7/2
f 7/7/2 8/8/2 6/6/2
o mesh10
v -0.370000 -0.920000 0.070000
v 0.370000 -0.920000 0.070000
v -0.355000 -0.905000 0.055000
v 0.355000 -0.905000 0.055000
vn -0.0000 0.7071 0.7071
vt 0.001810 0.487442
vt 1.001804 0.483891
vt 0.022182 0.516037
vt 0.981636 0.512630
s 0
usemtl 0.615686_0.811765_0.929412_0.000000_0.000000
f 9/9/3 10/10/3 12/12/3
f 12/12/3 11/11/3 9/9/3
o mesh11
v 0.370000 0.920000 0.070000
v -0.370000 0.920000 0.070000
v -0.355000 0.905000 0.055000
v 0.355000 0.905000 0.055000
vn -0.0000 -0.7071 0.7071
vt 1.004752 0.726863
vt 0.004823 0.738763
vt 0.024750 0.709857
vt 0.984142 0.698440
s 0
usemtl 0.615686_0.811765_0.929412_0.000000_0.000000
f 13/13/4 14/14/4 15/15/4
f 15/15/4 16/16/4 13/13/4
o mesh12
v -0.355000 0.905000 0.055000
v 0.355000 0.905000 0.055000
v 0.355000 0.125000 0.055000
v -0.355000 0.125000 0.055000
vn -0.0000 -0.0000 1.0000
vt 0.003195 -0.001252
vt 0.002147 0.498747
vt 0.551442 0.499898
vt 0.552489 -0.000101
s 0
usemtl 0.615686_0.811765_0.929412_0.000000_0.000000
f 19/19/5 18/18/5 17/17/5
f 17/17/5 20/20/5 19/19/5
o mesh13
v 0.370000 0.920000 0.070000
v 0.370000 0.110000 0.070000
v 0.355000 0.905000 0.055000
v 0.355000 0.125000 0.055000
vn -0.7071 -0.0000 0.7071
vt 0.884372 0.659117
vt 0.003999 0.669594
vt 0.868343 0.682367
vt 0.020577 0.692456
s 0
usemtl 0.615686_0.811765_0.929412_0.000000_0.000000
f 22/22/6 21/21/6 23/23/6
f 23/23/6 24/24/6 22/22/6
o mesh14
v -0.370000 0.920000 0.070000
v -0.370000 0.110000 0.070000
v -0.355000 0.905000 0.055000
v -0.355000 0.125000 0.055000
vn 0.7071 -0.0000 0.7071
vt 0.003725 0.646538
vt 0.884097 0.636061
vt 0.020303 0.669400
vt 0.868069 0.659311
s 0
usemtl 0.615686_0.811765_0.929412_0.000000_0.000000
f 25/25/7 26/26/7 28/28/7
f 28/28/7 27/27/7 25/25/7
o mesh15
v 0.370000 0.110000 0.070000
v -0.370000 0.110000 0.070000
v 0.355000 0.125000 0.055000
v -0.355000 0.125000 0.055000
vn -0.0000 0.7071 0.7071
vt 0.807742 0.613910
vt 0.003451 0.623481
vt 0.791713 0.637160
vt 0.020028 0.646344
s 0
usemtl 0.615686_0.811765_0.929412_0.000000_0.000000
f 30/30/8 29/29/8 31/31/8
f 31/31/8 32/32/8 30/30/8
o mesh2
v 0.500000 1.050000 0.000000
v 0.500000 1.050000 0.070000
v -0.500000 1.050000 0.000000
v -0.500000 1.050000 0.070000
vn -0.0000 1.0000 -0.0000
vt 0.542857 0.476191
vt 0.576191 0.476191
vt 0.542857 0.000000
vt 0.576191 0.000000
s 0
usemtl 0.615686_0.811765_0.929412_0.000000_0.000000
f 34/34/9 33/33/9 35/35/9
f 35/35/9 36/36/9 34/34/9
o mesh3
v -0.500000 -1.050000 0.070000
v -0.500000 -1.050000 -0.000000
v -0.500000 1.050000 0.000000
v -0.500000 1.050000 0.070000
vn -1.0000 -0.0000 -0.0000
vt 0.509524 0.000000
vt 0.476191 0.000000
vt 0.476191 1.000000
vt 0.509524 1.000000
s 0
usemtl 0.615686_0.811765_0.929412_0.000000_0.000000
f 40/40/10 39/39/10 38/38/10
f 38/38/10 37/37/10 40/40/10
o mesh4
v -0.500000 -1.050000 -0.000000
v 0.500000 -1.050000 -0.000000
v 0.500000 1.050000 0.000000
v -0.500000 1.050000 0.000000
vn -0.0000 -0.0000 -1.0000
vt 1.000427 0.740602
vt 1.002817 0.264417
vt 0.002830 0.259398
vt 0.000440 0.735583
s 0
usemtl 0.615686_0.811765_0.929412_0.000000_0.000000
f 43/43/11 42/42/11 41/41/11
f 41/41/11 44/44/11 43/43/11
o mesh5
v -0.500000 -1.050000 0.070000
v 0.500000 -1.050000 0.070000
v 0.500000 1.050000 0.070000
v -0.500000 1.050000 0.070000
v 0.370000 0.920000 0.070000
v 0.370000 0.110000 0.070000
v 0.370000 -0.000000 0.070000
v -0.370000 -0.000000 0.070000
v -0.370000 0.920000 0.070000
v -0.370000 0.110000 0.070000
v -0.370000 -0.920000 0.070000
v 0.370000 -0.920000 0.070000
vn -0.0000 -0.0000 1.0000
vt 0.001684 0.737958
vt 0.001783 0.261833
vt 1.001645 0.262042
vt 1.001546 0.738167
vt 0.939736 0.323925
vt 0.554075 0.323845
vt 0.501702 0.323834
vt 0.501628 0.676166
vt 0.939663 0.676258
vt 0.554001 0.676177
vt 0.063593 0.676075
vt 0.063667 0.323742
s 0
usemtl 0.615686_0.811765_0.929412_0.000000_0.000000
f 47/47/12 49/49/12 50/50/12
f 46/46/12 47/47/12 51/51/12
f 50/50/12 51/51/12 47/47/12
f 50/50/12 52/52/12 51/51/12
f 47/47/12 48/48/12 53/53/12
f 53/53/12 49/49/12 47/47/12
f 48/48/12 45/45/12 54/54/12
f 45/45/12 55/55/12 52/52/12
f 54/54/12 53/53/12 48/48/12
f 52/52/12 54/54/12 45/45/12
f 52/52/12 50/50/12 54/54/12
f 45/45/12 46/46/12 56/56/12
f 56/56/12 55/55/12 45/45/12
f 51/51/12 56/56/12 46/46/12
o mesh6
v 0.370000 -0.000000 0.070000
v -0.370000 -0.000000 0.070000
v -0.355000 -0.015000 0.055000
v 0.355000 -0.015000 0.055000
vn -0.0000 -0.7071 0.7071
vt 1.001804 0.483891
vt 0.001810 0.487442
vt 0.021978 0.458704
vt 0.981432 0.455297
s 0
usemtl 0.615686_0.811765_0.929412_0.000000_0.000000
f 57/57/13 58/58/13 59/59/13
f 59/59/13 60/60/13 57/57/13
o mesh7
v -0.355000 -0.015000 0.055000
v 0.355000 -0.015000 0.055000
v -0.355000 -0.905000 0.055000
v 0.355000 -0.905000 0.055000
vn -0.0000 -0.0000 1.0000
vt 0.002147 0.498747
vt 0.001099 0.998746
vt 0.628906 0.500060
vt 0.627858 1.000059
s 0
usemtl 0.615686_0.811765_0.929412_0.000000_0.000000
f 63/63/14 64/64/14 62/62/14
f 62/62/14 61/61/14 63/63/14
o mesh8
v 0.370000 -0.000000 0.070000
v 0.370000 -0.920000 0.070000
v 0.355000 -0.015000 0.055000
v 0.355000 -0.905000 0.055000
vn -0.7071 -0.0000 0.7071
vt 1.001844 0.495109
vt 0.001850 0.498660
vt 0.985621 0.518224
vt 0.018236 0.521659
s 0
usemtl 0.615686_0.811765_0.929412_0.000000_0.000000
f 66/66/15 65/65/15 67/67/15
f 67/67/15 68/68/15 66/66/15
o mesh9
v -0.370000 -0.000000 0.070000
v -0.370000 -0.920000 0.070000
v -0.355000 -0.015000 0.055000
v -0.355000 -0.905000 0.055000
vn 0.7071 -0.0000 0.7071
vt 1.002007 0.541224
vt 0.002014 0.544775
vt 0.985621 0.518224
vt 0.018236 0.521659
s 0
usemtl 0.615686_0.811765_0.929412_0.000000_0.000000
f 69/69/16 70/70/16 72/72/16
f 72/72/16 71/71/16 69/69/16
